# xmcd
#
# Track frame offsets:
# 150
# 18263
# 37975
# 59539
# 89771
# 114561
# 134881
# 161439
# 179203
# 201811
# 221003
#
# Disc length: 3101 seconds
#
#
# Revision: 0
# Processed by: cddbd v1.5PL3 Copyright (c) Steve Scherf et al.
# Submitted via: FreeRIP 2.52 
#
DISCID=a80c1b0b
DTITLE=Mike Gibb - Shootin' the Blues
DYEAR=2000
DGENRE=Blues
TTITLE0=Shootin' the Blues
TTITLE1=Easy Buddy
TTITLE2=Love To Be Your Man
TTITLE3=Nothin' Lasts Forever
TTITLE4=Spanish Moss
TTITLE5=Some Days
TTITLE6=Just the Thought of You
TTITLE7=The Blues Still Carries On
TTITLE8=Kidney Stew
TTITLE9=Goodtime Charlies Got the Blues
TTITLE10=Happy Guy
EXTD=Special Guests: Sugar Blue, Liz Mandville Greeson, Chicago Fire Horns
EXTT0=
EXTT1=
EXTT2=
EXTT3=
EXTT4=
EXTT5=
EXTT6=
EXTT7=
EXTT8=
EXTT9=
EXTT10=
PLAYORDER=
